<?xml version="1.0" encoding="UTF-8" standalone="no"?>
<svg xmlns="http://www.w3.org/2000/svg" xmlns:xlink="http://www.w3.org/1999/xlink" style="isolation:isolate" viewBox="0 0 800 980" width="800pt" height="980pt">
<defs>
<linearGradient id="lgradhat" x1="95%" y1="0%" x2="5%" y2="100%" >
<stop offset="30%" style="stop-color:rgb(0, 201, 181);stop-opacity:1" />
<stop offset="100%" style="stop-color:rgb(0, 178, 194);stop-opacity:1" />
</linearGradient>
<linearGradient id="lgradface" x1="95%" y1="0%" x2="5%" y2="100%" >
<stop offset="0%" style="stop-color:rgb(0, 201, 181);stop-opacity:1" />
<stop offset="100%" style="stop-color:rgb(0, 178, 194);stop-opacity:1" />
<!-- <stop offset="100%" style="stop-color:rgb(69,140,153);stop-opacity:1" /> -->
</linearGradient>
<clipPath id="_clipPath_mFFOFRoZDPwZeoLGBAaPqqdgYpIvRWDO"><rect width="800" height="980"/></clipPath>
</defs>
<g clip-path="url(#_clipPath_mFFOFRoZDPwZeoLGBAaPqqdgYpIvRW80)"><g style="isolation:isolate"><path d=" M 132.662 368.503 Q 50.228 344.358 29.785 358.215 C 9.341 372.072 9.296 386.23 12.638 399.366 C 15.981 412.502 94.029 498.64 396.713 495.385 C 699.398 492.13 785.47 418.128 787.646 399.366 C 789.822 380.604 781.975 367.728 763.642 358.215 Q 745.308 348.702 664.194 368.503 L 664.194 169.607 Q 641.217 14.789 396.713 15.291 Q 152.21 15.794 132.662 169.607 L 132.662 368.503 Z " fill="url(#lgradhat)"/><path d=" M 677.911 738.861 C 676.561 798.182 610.792 968.417 396.713 965.19 C 182.634 961.964 122.726 804.633 122.374 738.861 Q 122.022 673.088 122.395 487.914 C 181.19 506.207 268.935 520.763 396.713 519.389 C 527.329 517.985 617.608 503.406 677.924 485.749 Q 679.261 679.54 677.911 738.861 Z " fill="url(#lgradface)"/>
<circle vector-effect="non-scaling-stroke" cx="288.69210989427233" cy="678.8489030784123" r="36.006998616085795" fill="#ffffff"/>
<path d=" M 215.315 603.094 L 215.474 603.311 L 225.391 616.899 L 219.059 624.508 Q 214.186 630.632 203.191 651.11 L 187.782 648.778 L 187.605 648.751 C 184.875 657.939 183.405 667.52 183.232 677.103 L 183.232 677.103 L 183.408 677.13 L 198.806 679.539 Q 203.025 702.406 205.913 709.662 L 205.913 709.662 L 209.654 718.848 L 196.251 728.738 C 194.871 729.749 210.421 751.658 213.148 752.079 L 213.148 752.079 L 226.727 742.149 L 234.347 748.483 Q 240.473 753.358 260.947 764.362 L 258.606 779.758 L 258.579 779.935 C 267.725 782.705 277.386 784.196 286.942 784.31 L 286.942 784.31 L 286.969 784.134 L 289.376 768.747 Q 312.244 764.517 319.501 761.63 L 319.501 761.63 L 328.687 757.888 L 338.574 771.302 C 340.751 771.638 347.004 766.615 348.276 765.756 C 348.276 765.756 361.905 754.404 361.905 754.404 L 361.905 754.404 L 351.988 740.815 L 358.321 733.195 Q 363.194 727.073 374.2 706.595 L 389.597 708.936 L 389.774 708.964 C 392.542 699.825 394.041 690.16 394.147 680.611 L 394.147 680.611 L 393.971 680.584 L 378.586 678.166 Q 374.357 655.302 371.468 648.041 L 371.468 648.041 L 367.725 638.866 L 381.13 628.966 L 364.243 605.637 L 364.243 605.637 L 350.654 615.555 L 343.032 609.232 Q 337.021 604.235 316.432 593.353 L 318.775 577.945 L 318.801 577.779 C 309.636 575.004 300.005 573.554 290.439 573.393 L 290.439 573.393 L 290.412 573.57 L 288.003 588.967 Q 265.139 593.186 257.88 596.074 L 257.88 596.074 L 248.703 599.828 L 238.805 586.412 C 237.231 584.264 217.224 601.292 215.315 603.094 L 215.315 603.094 Z  M 304.876 615.687 C 336.458 623.61 357.431 654.983 353.381 687.157 C 348.861 723.078 314.458 748.782 278.758 743.275 C 276.617 742.944 274.469 742.561 272.366 742.034 C 248.097 735.957 229.126 715.277 224.553 690.793 C 215.992 644.963 259.443 604.183 304.876 615.687 L 304.876 615.687 Z " fill-rule="evenodd" fill="#ffffff">
<animateTransform attributeName="transform"
    attributeType="XML"
    type="rotate"
    from="0 289 679"
    to="360 289 679"
    dur="15s"
    repeatCount="indefinite"/>
</path>
<circle vector-effect="non-scaling-stroke" cx="525.3095293714078" cy="678.8489030784123" r="36.00699861608578" fill="#ffffff"/>
</g></g></svg>
